<svg width="1919" height="774" viewBox="0 0 1919 774" fill="none" xmlns="http://www.w3.org/2000/svg">
    <path d="M1936 545.381C1731.74 657.784 1380.73 774 982 774C539.364 774 146.545 697.642 -43 564L-34 -44.0001H1936V545.381Z" fill="#419B38"/>
    <path d="M1936 531.381C1731.74 643.784 1380.73 717.955 982 717.955C539.364 717.955 155.545 626.552 -34 492.91V-44H1936V531.381Z" fill="#53B848"/>
    <mask id="mask0" mask-type="alpha" maskUnits="userSpaceOnUse" x="-34" y="-44" width="1970" height="762">
        <path d="M1936 531.381C1731.74 643.784 1380.73 717.955 982 717.955C539.364 717.955 155.545 626.552 -34 492.91V-44H1936V531.381Z" fill="#53B848"/>
    </mask>
    <g mask="url(#mask0)">
        <path d="M264.827 493.101L297.849 416.648L310.356 501.199L264.827 493.101Z" fill="#5BC34F"/>
        <path d="M442.267 341.468L349.514 460.746L303.489 362.576L442.267 341.468Z" fill="#45A13C"/>
        <path d="M148 673.864L568 252L748 368L732 836L148 673.864Z" fill="#4BA841"/>
        <path d="M180.628 481.676L175.868 624.414L261.443 532.585L180.628 481.676Z" fill="#58BF4D"/>
        <path d="M398.354 624.047L463.274 324.051L718.489 624.736L398.354 624.047Z" fill="#45A13C"/>
        <path d="M501.618 599.191C499.535 599.191 497.847 600.879 497.847 602.962C497.847 605.045 499.535 606.733 501.618 606.733C503.701 606.733 505.389 605.045 505.389 602.962C505.389 600.879 503.701 599.191 501.618 599.191Z" fill="#3C9334"/>
        <path d="M721.846 284.719L333.985 424.241L334.092 424.54L721.953 285.017L721.846 284.719Z" fill="#518AC9"/>
        <path d="M405.243 284.203L405.325 284.174L448.081 268.637L394.907 332.899L395.04 332.268L405.243 284.203ZM447.092 269.334L405.514 284.441L395.485 331.702L447.092 269.334Z" fill="#34872C"/>
        <path d="M443.727 262.259C447.444 260.127 452.18 261.411 454.311 265.127C456.442 268.841 455.157 273.578 451.444 275.709C447.727 277.839 442.991 276.555 440.864 272.843C438.729 269.129 440.014 264.387 443.727 262.259Z" fill="#3C9334"/>
        <path d="M395.197 327.39C392.486 327.39 390.288 329.588 390.288 332.299C390.288 335.01 392.486 337.208 395.197 337.208C397.908 337.208 400.106 335.01 400.106 332.299C400.106 329.588 397.908 327.39 395.197 327.39Z" fill="#3C9334"/>
        <path d="M403.321 280.732C405.301 279.597 407.833 280.283 408.969 282.265C410.106 284.246 409.418 286.776 407.438 287.911C405.454 289.05 402.928 288.364 401.792 286.383C400.651 284.397 401.336 281.871 403.321 280.732Z" fill="#3C9334"/>
        <path d="M177.383 450.302L249.53 466.808L213.457 409.266L177.383 450.302Z" fill="#4BA841"/>
        <path d="M748.599 430.062L748.605 430.1L695.472 603.008L695.437 603.12H501.55L333.915 429.094L333.828 429.004L395.421 330.942L395.46 330.879L721.857 284.713L722.009 284.692L748.599 430.062ZM334.229 428.964L501.685 602.802H695.203L748.28 430.082L721.752 285.049L395.65 331.174L334.229 428.964Z" fill="#34872C"/>
        <path d="M334.029 424.386C331.49 424.386 329.431 426.445 329.431 428.984C329.431 431.523 331.49 433.582 334.029 433.582C336.568 433.582 338.627 431.523 338.627 428.984C338.627 426.445 336.568 424.386 334.029 424.386Z" fill="#3C9334"/>
        <path d="M716.895 278.03C720.612 275.898 725.348 277.182 727.479 280.898C729.61 284.612 728.325 289.349 724.612 291.48C720.895 293.61 716.159 292.326 714.032 288.614C711.897 284.9 713.182 280.158 716.895 278.03Z" fill="#3C9334"/>
        <path d="M263.062 598.613L262.953 598.821L236.017 567.457L281.996 562.067L263.062 598.613ZM262.887 598.259L281.439 562.451L236.646 567.702L262.887 598.259Z" fill="#34872C"/>
        <path d="M353.959 558.746L281.727 562.418L281.659 562.421L230.113 513.27L229.961 513.124L292.181 477.069L292.303 476.999L353.959 558.746ZM281.778 562.097L353.345 558.459L292.217 477.412L230.484 513.184L281.778 562.097Z" fill="#34872C"/>
        <path d="M236.522 567.85L197.735 548.585L197.547 548.491L230.34 512.79L236.522 567.85ZM236.142 567.307L230.103 513.517L198.065 548.396L236.142 567.307Z" fill="#34872C"/>
        <path d="M340.869 405.622L340.941 405.734L311.454 432.844L297.691 339.286L297.586 338.562L340.869 405.622ZM340.529 405.681L298.112 339.964L311.68 432.204L340.529 405.681Z" fill="#34872C"/>
        <path d="M208.835 428.847L208.817 429.093L161.533 403.325L213.178 364.37L213.456 364.16L208.835 428.847ZM208.537 428.58L213.091 364.835L162.117 403.282L208.537 428.58Z" fill="#34872C"/>
        <path d="M386.736 464.828L256.4 453.802L255.711 453.743L311.482 432.387L340.755 405.475L386.736 464.828ZM386.043 464.451L340.716 405.941L311.676 432.641L311.653 432.662L257.118 453.544L386.043 464.451Z" fill="#34872C"/>
        <path d="M426.76 577.013L426.861 577.293L353.613 558.755L353.446 558.714L386.24 464.587L386.388 464.162L426.76 577.013ZM426.361 576.841L386.392 465.116L353.859 558.491L426.361 576.841Z" fill="#34872C"/>
        <path d="M297.975 339.169L298.027 339.237L256.562 453.697L256.435 454.051L213.131 364.568L213.112 364.528L242.471 306.173L242.506 305.759L297.975 339.169ZM256.392 453.236L297.67 339.291L242.752 306.611L213.435 364.468L256.392 453.236Z" fill="#34872C"/>
        <path d="M230.222 506.651C226.63 506.651 223.718 509.563 223.718 513.155C223.718 516.747 226.63 519.659 230.222 519.659C233.814 519.659 236.726 516.747 236.726 513.155C236.726 509.563 233.814 506.651 230.222 506.651Z" fill="#3C9334"/>
        <path d="M291.278 344.219C293.439 347.087 297.519 347.657 300.387 345.497C303.255 343.331 303.825 339.257 301.661 336.387C299.498 333.519 295.421 332.947 292.553 335.11C289.684 337.272 289.115 341.35 291.278 344.219Z" fill="#3C9334"/>
        <path d="M213.276 357.996C209.684 357.996 206.772 360.908 206.772 364.5C206.772 368.092 209.684 371.004 213.276 371.004C216.868 371.004 219.78 368.092 219.78 364.5C219.78 360.908 216.868 357.996 213.276 357.996Z" fill="#3C9334"/>
        <path d="M237.436 310.103C239.599 312.97 243.68 313.541 246.547 311.38C249.416 309.214 249.986 305.137 247.822 302.269C245.66 299.402 241.58 298.828 238.711 300.994C235.845 303.154 235.273 307.234 237.436 310.103Z" fill="#3C9334"/>
        <path d="M256.414 447.137C252.821 447.137 249.909 450.049 249.909 453.642C249.909 457.235 252.821 460.147 256.414 460.147C260.007 460.147 262.919 457.235 262.919 453.642C262.919 450.049 260.007 447.137 256.414 447.137Z" fill="#3C9334"/>
        <path d="M257.727 602.456C259.89 605.325 263.967 605.897 266.836 603.73C269.704 601.57 270.274 597.49 268.113 594.621C265.95 591.754 261.87 591.182 259.001 593.345C256.133 595.51 255.564 599.588 257.727 602.456Z" fill="#3C9334"/>
        <path d="M348.459 562.52C350.623 565.389 354.702 565.958 357.568 563.798C360.437 561.633 361.009 557.555 358.846 554.687C356.683 551.821 352.603 551.248 349.737 553.412C346.869 555.574 346.296 559.652 348.459 562.52Z" fill="#3C9334"/>
        <path d="M292.259 472.606C289.719 472.606 287.66 474.665 287.66 477.205C287.66 479.745 289.719 481.804 292.259 481.804C294.799 481.804 296.858 479.745 296.858 477.205C296.858 474.665 294.799 472.606 292.259 472.606Z" fill="#3C9334"/>
        <path d="M426.61 572.467C424.069 572.467 422.01 574.527 422.01 577.067C422.01 579.608 424.069 581.667 426.61 581.667C429.15 581.667 431.21 579.608 431.21 577.067C431.21 574.527 429.15 572.467 426.61 572.467Z" fill="#3C9334"/>
        <path d="M385.178 460.954C382.638 460.954 380.579 463.013 380.579 465.553C380.579 468.093 382.638 470.152 385.178 470.152C387.718 470.152 389.777 468.093 389.777 465.553C389.777 463.013 387.718 460.954 385.178 460.954Z" fill="#3C9334"/>
        <path d="M310.356 428.84C307.817 428.84 305.758 430.899 305.758 433.438C305.758 435.977 307.817 438.036 310.356 438.036C312.895 438.036 314.954 435.977 314.954 433.438C314.954 430.899 312.895 428.84 310.356 428.84Z" fill="#3C9334"/>
        <path d="M340.735 401.107C338.195 401.107 336.136 403.166 336.136 405.706C336.136 408.246 338.195 410.305 340.735 410.305C343.275 410.305 345.334 408.246 345.334 405.706C345.334 403.166 343.275 401.107 340.735 401.107Z" fill="#3C9334"/>
        <path d="M234.36 569.627C235.89 571.654 238.773 572.059 240.8 570.529C242.828 569 243.232 566.114 241.702 564.085C240.173 562.06 237.29 561.652 235.263 563.184C233.235 564.713 232.832 567.597 234.36 569.627Z" fill="#3C9334"/>
        <path d="M161.825 398.706C159.286 398.706 157.227 400.765 157.227 403.304C157.227 405.843 159.286 407.902 161.825 407.902C164.364 407.902 166.423 405.843 166.423 403.304C166.423 400.765 164.364 398.706 161.825 398.706Z" fill="#3C9334"/>
        <path d="M194.134 551.217C195.662 553.244 198.546 553.648 200.575 552.118C202.604 550.59 203.008 547.704 201.479 545.676C199.947 543.649 197.065 543.243 195.036 544.774C193.008 546.303 192.605 549.188 194.134 551.217Z" fill="#3C9334"/>
        <path d="M208.675 424.237C206.134 424.237 204.075 426.297 204.075 428.837C204.075 431.378 206.134 433.437 208.675 433.437C211.215 433.437 213.275 431.378 213.275 428.837C213.275 426.297 211.215 424.237 208.675 424.237Z" fill="#3C9334"/>
        <path d="M1667.78 493.101L1634.76 416.648L1622.25 501.199L1667.78 493.101Z" fill="#5BC34F"/>
        <path d="M1490.34 341.468L1583.09 460.746L1629.12 362.576L1490.34 341.468Z" fill="#45A13C"/>
        <path d="M1784.6 673.864L1364.6 252L1184.6 368L1200.6 836L1784.6 673.864Z" fill="#4BA841"/>
        <path d="M1751.98 481.676L1756.74 624.414L1671.16 532.585L1751.98 481.676Z" fill="#58BF4D"/>
        <path d="M1534.25 624.047L1469.33 324.051L1214.12 624.736L1534.25 624.047Z" fill="#45A13C"/>
        <path d="M1430.99 599.191C1433.07 599.191 1434.76 600.879 1434.76 602.962C1434.76 605.045 1433.07 606.733 1430.99 606.733C1428.9 606.733 1427.22 605.045 1427.22 602.962C1427.22 600.879 1428.9 599.191 1430.99 599.191Z" fill="#3C9334"/>
        <path d="M1210.76 284.719L1598.62 424.241L1598.51 424.54L1210.65 285.017L1210.76 284.719Z" fill="#518AC9"/>
        <path d="M1527.36 284.203L1527.28 284.174L1484.52 268.637L1537.7 332.899L1537.57 332.268L1527.36 284.203ZM1485.51 269.334L1527.09 284.441L1537.12 331.702L1485.51 269.334Z" fill="#34872C"/>
        <path d="M1488.88 262.259C1485.16 260.127 1480.43 261.411 1478.29 265.127C1476.16 268.841 1477.45 273.578 1481.16 275.709C1484.88 277.839 1489.61 276.555 1491.74 272.843C1493.88 269.129 1492.59 264.387 1488.88 262.259Z" fill="#3C9334"/>
        <path d="M1537.41 327.39C1540.12 327.39 1542.32 329.588 1542.32 332.299C1542.32 335.01 1540.12 337.208 1537.41 337.208C1534.7 337.208 1532.5 335.01 1532.5 332.299C1532.5 329.588 1534.7 327.39 1537.41 327.39Z" fill="#3C9334"/>
        <path d="M1529.28 280.732C1527.3 279.597 1524.77 280.283 1523.64 282.265C1522.5 284.246 1523.19 286.776 1525.17 287.911C1527.15 289.05 1529.68 288.364 1530.81 286.383C1531.95 284.397 1531.27 281.871 1529.28 280.732Z" fill="#3C9334"/>
        <path d="M1755.22 450.302L1683.08 466.808L1719.15 409.266L1755.22 450.302Z" fill="#4BA841"/>
        <path d="M1184.01 430.062L1184 430.1L1237.13 603.008L1237.17 603.12H1431.05L1598.69 429.094L1598.78 429.004L1537.18 330.942L1537.15 330.879L1210.75 284.713L1210.6 284.692L1184.01 430.062ZM1598.38 428.964L1430.92 602.802H1237.4L1184.33 430.082L1210.85 285.049L1536.96 331.174L1598.38 428.964Z" fill="#34872C"/>
        <path d="M1598.58 424.386C1601.12 424.386 1603.17 426.445 1603.17 428.984C1603.17 431.523 1601.12 433.582 1598.58 433.582C1596.04 433.582 1593.98 431.523 1593.98 428.984C1593.98 426.445 1596.04 424.386 1598.58 424.386Z" fill="#3C9334"/>
        <path d="M1215.71 278.03C1211.99 275.898 1207.26 277.182 1205.13 280.898C1202.99 284.612 1204.28 289.349 1207.99 291.48C1211.71 293.61 1216.45 292.326 1218.57 288.614C1220.71 284.9 1219.42 280.158 1215.71 278.03Z" fill="#3C9334"/>
        <path d="M1669.54 598.613L1669.65 598.821L1696.59 567.457L1650.61 562.067L1669.54 598.613ZM1669.72 598.259L1651.17 562.451L1695.96 567.702L1669.72 598.259Z" fill="#34872C"/>
        <path d="M1578.65 558.746L1650.88 562.418L1650.95 562.421L1702.49 513.27L1702.64 513.124L1640.42 477.069L1640.3 476.999L1578.65 558.746ZM1650.83 562.097L1579.26 558.459L1640.39 477.412L1702.12 513.184L1650.83 562.097Z" fill="#34872C"/>
        <path d="M1696.08 567.85L1734.87 548.585L1735.06 548.491L1702.27 512.79L1696.08 567.85ZM1696.46 567.307L1702.5 513.517L1734.54 548.396L1696.46 567.307Z" fill="#34872C"/>
        <path d="M1591.74 405.622L1591.66 405.734L1621.15 432.844L1634.91 339.286L1635.02 338.562L1591.74 405.622ZM1592.08 405.681L1634.49 339.964L1620.93 432.204L1592.08 405.681Z" fill="#34872C"/>
        <path d="M1723.77 428.847L1723.79 429.093L1771.07 403.325L1719.43 364.37L1719.15 364.16L1723.77 428.847ZM1724.07 428.58L1719.51 364.835L1770.49 403.282L1724.07 428.58Z" fill="#34872C"/>
        <path d="M1545.87 464.828L1676.21 453.802L1676.89 453.743L1621.12 432.387L1591.85 405.475L1545.87 464.828ZM1546.56 464.451L1591.89 405.941L1620.93 432.641L1620.95 432.662L1675.49 453.544L1546.56 464.451Z" fill="#34872C"/>
        <path d="M1505.85 577.013L1505.74 577.293L1578.99 558.755L1579.16 558.714L1546.37 464.587L1546.22 464.162L1505.85 577.013ZM1506.24 576.841L1546.21 465.116L1578.75 558.491L1506.24 576.841Z" fill="#34872C"/>
        <path d="M1634.63 339.169L1634.58 339.237L1676.04 453.697L1676.17 454.051L1719.47 364.568L1719.49 364.528L1690.13 306.173L1690.1 305.759L1634.63 339.169ZM1676.21 453.236L1634.93 339.291L1689.85 306.611L1719.17 364.468L1676.21 453.236Z" fill="#34872C"/>
        <path d="M1702.38 506.651C1705.98 506.651 1708.89 509.563 1708.89 513.155C1708.89 516.747 1705.98 519.659 1702.38 519.659C1698.79 519.659 1695.88 516.747 1695.88 513.155C1695.88 509.563 1698.79 506.651 1702.38 506.651Z" fill="#3C9334"/>
        <path d="M1641.33 344.219C1639.17 347.087 1635.09 347.657 1632.22 345.497C1629.35 343.331 1628.78 339.257 1630.94 336.387C1633.11 333.519 1637.18 332.947 1640.05 335.11C1642.92 337.272 1643.49 341.35 1641.33 344.219Z" fill="#3C9334"/>
        <path d="M1719.33 357.996C1722.92 357.996 1725.83 360.908 1725.83 364.5C1725.83 368.092 1722.92 371.004 1719.33 371.004C1715.74 371.004 1712.83 368.092 1712.83 364.5C1712.83 360.908 1715.74 357.996 1719.33 357.996Z" fill="#3C9334"/>
        <path d="M1695.17 310.103C1693.01 312.97 1688.92 313.541 1686.06 311.38C1683.19 309.214 1682.62 305.137 1684.78 302.269C1686.94 299.402 1691.02 298.828 1693.89 300.994C1696.76 303.154 1697.33 307.234 1695.17 310.103Z" fill="#3C9334"/>
        <path d="M1676.19 447.137C1679.78 447.137 1682.7 450.049 1682.7 453.642C1682.7 457.235 1679.78 460.147 1676.19 460.147C1672.6 460.147 1669.69 457.235 1669.69 453.642C1669.69 450.049 1672.6 447.137 1676.19 447.137Z" fill="#3C9334"/>
        <path d="M1674.88 602.456C1672.71 605.325 1668.64 605.897 1665.77 603.73C1662.9 601.57 1662.33 597.49 1664.49 594.621C1666.65 591.754 1670.73 591.182 1673.6 593.345C1676.47 595.51 1677.04 599.588 1674.88 602.456Z" fill="#3C9334"/>
        <path d="M1584.15 562.52C1581.98 565.389 1577.9 565.958 1575.04 563.798C1572.17 561.633 1571.6 557.555 1573.76 554.687C1575.92 551.821 1580 551.248 1582.87 553.412C1585.74 555.574 1586.31 559.652 1584.15 562.52Z" fill="#3C9334"/>
        <path d="M1640.35 472.606C1642.89 472.606 1644.95 474.665 1644.95 477.205C1644.95 479.745 1642.89 481.804 1640.35 481.804C1637.81 481.804 1635.75 479.745 1635.75 477.205C1635.75 474.665 1637.81 472.606 1640.35 472.606Z" fill="#3C9334"/>
        <path d="M1505.99 572.467C1508.54 572.467 1510.6 574.527 1510.6 577.067C1510.6 579.608 1508.54 581.667 1505.99 581.667C1503.45 581.667 1501.4 579.608 1501.4 577.067C1501.4 574.527 1503.45 572.467 1505.99 572.467Z" fill="#3C9334"/>
        <path d="M1547.43 460.954C1549.97 460.954 1552.03 463.013 1552.03 465.553C1552.03 468.093 1549.97 470.152 1547.43 470.152C1544.89 470.152 1542.83 468.093 1542.83 465.553C1542.83 463.013 1544.89 460.954 1547.43 460.954Z" fill="#3C9334"/>
        <path d="M1622.25 428.84C1624.79 428.84 1626.85 430.899 1626.85 433.438C1626.85 435.977 1624.79 438.036 1622.25 438.036C1619.71 438.036 1617.65 435.977 1617.65 433.438C1617.65 430.899 1619.71 428.84 1622.25 428.84Z" fill="#3C9334"/>
        <path d="M1591.87 401.107C1594.41 401.107 1596.47 403.166 1596.47 405.706C1596.47 408.246 1594.41 410.305 1591.87 410.305C1589.33 410.305 1587.27 408.246 1587.27 405.706C1587.27 403.166 1589.33 401.107 1591.87 401.107Z" fill="#3C9334"/>
        <path d="M1698.24 569.627C1696.71 571.654 1693.83 572.059 1691.8 570.529C1689.78 569 1689.37 566.114 1690.9 564.085C1692.43 562.06 1695.31 561.652 1697.34 563.184C1699.37 564.713 1699.77 567.597 1698.24 569.627Z" fill="#3C9334"/>
        <path d="M1770.78 398.706C1773.32 398.706 1775.38 400.765 1775.38 403.304C1775.38 405.843 1773.32 407.902 1770.78 407.902C1768.24 407.902 1766.18 405.843 1766.18 403.304C1766.18 400.765 1768.24 398.706 1770.78 398.706Z" fill="#3C9334"/>
        <path d="M1738.47 551.217C1736.94 553.244 1734.06 553.648 1732.03 552.118C1730 550.59 1729.6 547.704 1731.13 545.676C1732.66 543.649 1735.54 543.243 1737.57 544.774C1739.6 546.303 1740 549.188 1738.47 551.217Z" fill="#3C9334"/>
        <path d="M1723.93 424.237C1726.47 424.237 1728.53 426.297 1728.53 428.837C1728.53 431.378 1726.47 433.437 1723.93 433.437C1721.39 433.437 1719.33 431.378 1719.33 428.837C1719.33 426.297 1721.39 424.237 1723.93 424.237Z" fill="#3C9334"/>
    </g>
</svg>
