<svg width="106" height="44" viewBox="0 0 106 44" fill="none" xmlns="http://www.w3.org/2000/svg">
<path d="M54.4637 6.10827V0.810547C42.8643 0.810547 33.46 10.298 33.46 22.0014C33.46 33.7042 42.8637 43.1929 54.4637 43.1929V37.8946C46.6585 37.8946 40.1834 32.1667 38.9326 24.6506H49.2128V19.3529H38.9326C40.1834 11.8362 46.6585 6.10827 54.4637 6.10827Z" fill="white"/>
<path d="M36.3773 43.2908L12.554 0.712891L6.91357 0.81128L30.932 43.3892L36.3773 43.2908Z" fill="white"/>
<path d="M4.67739 0.712891L28.4038 43.2908L25.5836 43.1937L1.9541 0.81128L4.67739 0.712891Z" fill="white"/>
<path d="M85.9702 37.8946L83.3444 43.1929H92.5337C99.0585 43.1929 104.349 37.8561 104.349 31.2726C104.349 24.6885 99.0591 19.3529 92.5337 19.3529C88.9091 19.3529 85.9702 16.3878 85.9702 12.7309C85.9702 9.07338 88.9091 6.10888 92.5337 6.10888V0.810547C86.0089 0.810547 80.7192 6.14616 80.7192 12.7303C80.7192 19.3132 86.0083 24.6506 92.5337 24.6506C96.1583 24.6506 99.0978 27.6151 99.0978 31.2726C99.0978 34.9295 96.1583 37.8946 92.5337 37.8946H85.9702Z" fill="white"/>
<path d="M70.9752 37.8946C75.3382 34.0116 78.0936 28.3332 78.0936 22.0014C78.0936 10.298 68.6899 0.810547 57.0898 0.810547V6.10827C65.7897 6.10827 72.8427 13.2234 72.8427 22.0014C72.8427 30.7788 65.7897 37.8946 57.0898 37.8946V43.1929L80.8169 42.9962L83.6359 37.6007L70.9752 37.8946Z" fill="white"/>
<path d="M25.031 18.655L36.0853 0.810547H30.8344L22.5439 14.1939L25.031 18.655Z" fill="white"/>
<path d="M14.2532 27.5781L4.58057 43.1932H9.8309L16.7403 32.0398L14.2532 27.5781Z" fill="white"/>
</svg>